<svg width="760" height="760" viewBox="0 0 760 760" fill="none" xmlns="http://www.w3.org/2000/svg">
  <defs>
    <linearGradient id="heroGlow" x1="142" y1="124" x2="622" y2="642" gradientUnits="userSpaceOnUse">
      <stop stop-color="#B3FFF2"/>
      <stop offset="0.45" stop-color="#20D3BF"/>
      <stop offset="1" stop-color="#FFCC58"/>
    </linearGradient>
    <linearGradient id="heroScreen" x1="236" y1="198" x2="530" y2="542" gradientUnits="userSpaceOnUse">
      <stop stop-color="#123A47"/>
      <stop offset="0.55" stop-color="#0C5861"/>
      <stop offset="1" stop-color="#0B252E"/>
    </linearGradient>
    <linearGradient id="heroCard" x1="0" y1="0" x2="1" y2="1">
      <stop stop-color="#FFFFFF" stop-opacity="0.98"/>
      <stop offset="1" stop-color="#DDFCF6" stop-opacity="0.92"/>
    </linearGradient>
    <linearGradient id="heroSide" x1="480" y1="274" x2="628" y2="420" gradientUnits="userSpaceOnUse">
      <stop stop-color="#0A2730"/>
      <stop offset="1" stop-color="#0E7280"/>
    </linearGradient>
    <filter id="heroShadow" x="71" y="91" width="618" height="576" filterUnits="userSpaceOnUse" color-interpolation-filters="sRGB">
      <feFlood flood-opacity="0" result="BackgroundImageFix"/>
      <feColorMatrix in="SourceAlpha" type="matrix" values="0 0 0 0 0 0 0 0 0 0 0 0 0 0 0 0 0 0 127 0" result="hardAlpha"/>
      <feOffset dy="28"/>
      <feGaussianBlur stdDeviation="28"/>
      <feColorMatrix type="matrix" values="0 0 0 0 0.0156863 0 0 0 0 0.180392 0 0 0 0 0.2 0 0 0 0.28 0"/>
      <feBlend mode="normal" in2="BackgroundImageFix" result="effect1_dropShadow_1_1"/>
      <feBlend mode="normal" in="SourceGraphic" in2="effect1_dropShadow_1_1" result="shape"/>
    </filter>
    <filter id="miniShadow" x="0" y="0" width="760" height="760" filterUnits="userSpaceOnUse" color-interpolation-filters="sRGB">
      <feFlood flood-opacity="0" result="BackgroundImageFix"/>
      <feColorMatrix in="SourceAlpha" type="matrix" values="0 0 0 0 0 0 0 0 0 0 0 0 0 0 0 0 0 0 127 0" result="hardAlpha"/>
      <feOffset dy="18"/>
      <feGaussianBlur stdDeviation="18"/>
      <feColorMatrix type="matrix" values="0 0 0 0 0.0156863 0 0 0 0 0.180392 0 0 0 0 0.2 0 0 0 0.2 0"/>
      <feBlend mode="normal" in2="BackgroundImageFix" result="effect1_dropShadow_1_1"/>
      <feBlend mode="normal" in="SourceGraphic" in2="effect1_dropShadow_1_1" result="shape"/>
    </filter>
  </defs>

  <circle cx="380" cy="352" r="230" fill="url(#heroGlow)" opacity="0.22"/>
  <ellipse cx="374" cy="562" rx="212" ry="56" fill="#08171C" opacity="0.24"/>

  <g filter="url(#heroShadow)">
    <path d="M213 218C213 196.461 230.461 179 252 179H494C515.539 179 533 196.461 533 218V487C533 508.539 515.539 526 494 526H252C230.461 526 213 508.539 213 487V218Z" fill="url(#heroScreen)"/>
    <path d="M533 219L590 250V521L533 487V219Z" fill="url(#heroSide)"/>
    <path d="M252 179L533 179L590 250H309L252 179Z" fill="#D8FFF8" fill-opacity="0.12"/>
    <rect x="244" y="212" width="258" height="282" rx="28" fill="#092028"/>
    <rect x="258" y="228" width="230" height="252" rx="22" fill="#EFFFFB" fill-opacity="0.1"/>
    <rect x="276" y="252" width="194" height="114" rx="22" fill="#C2FFF4" fill-opacity="0.16"/>
    <rect x="298" y="276" width="152" height="72" rx="18" fill="#FFFFFF" fill-opacity="0.1"/>
    <circle cx="332" cy="312" r="26" fill="#21D0BE" fill-opacity="0.86"/>
    <path d="M324 299L346 312L324 325V299Z" fill="white"/>
    <rect x="277" y="387" width="132" height="14" rx="7" fill="white" fill-opacity="0.9"/>
    <rect x="277" y="413" width="170" height="11" rx="5.5" fill="#B9E8E0" fill-opacity="0.72"/>
    <rect x="277" y="438" width="118" height="11" rx="5.5" fill="#B9E8E0" fill-opacity="0.56"/>
    <rect x="244" y="516" width="258" height="58" rx="29" fill="#F1FFF9" fill-opacity="0.12"/>
    <circle cx="288" cy="545" r="18" fill="#22C7B3"/>
    <circle cx="332" cy="545" r="18" fill="#FFCD5A"/>
    <circle cx="376" cy="545" r="18" fill="#91E7DB"/>
    <path d="M424 530H474C486.15 530 496 539.85 496 552V552C496 564.15 486.15 574 474 574H424V530Z" fill="#0E7A83"/>
    <rect x="436" y="544" width="34" height="8" rx="4" fill="#EFFFFB" fill-opacity="0.88"/>
  </g>

  <g filter="url(#miniShadow)">
    <rect x="118" y="248" width="138" height="102" rx="26" fill="url(#heroCard)"/>
    <rect x="136" y="268" width="54" height="54" rx="18" fill="#13B8A3"/>
    <path d="M153 295L174 308L153 321V295Z" fill="white"/>
    <rect x="202" y="274" width="34" height="10" rx="5" fill="#0C3E48"/>
    <rect x="202" y="292" width="36" height="8" rx="4" fill="#5B8D94"/>
    <rect x="202" y="307" width="26" height="8" rx="4" fill="#8ABCB8"/>
  </g>

  <g filter="url(#miniShadow)">
    <rect x="498" y="118" width="146" height="120" rx="28" fill="#F5FFFC" fill-opacity="0.9"/>
    <rect x="516" y="140" width="110" height="34" rx="17" fill="#0E5C68"/>
    <rect x="516" y="188" width="84" height="14" rx="7" fill="#18C4B0"/>
    <rect x="516" y="210" width="64" height="10" rx="5" fill="#9FD8D0"/>
    <circle cx="595" cy="200" r="18" fill="#FFD560"/>
    <path d="M592 189L603 200L592 211L581 200L592 189Z" fill="#0B313B"/>
  </g>

  <g filter="url(#miniShadow)">
    <rect x="514" y="502" width="150" height="102" rx="28" fill="#081D24" fill-opacity="0.96"/>
    <rect x="532" y="526" width="74" height="12" rx="6" fill="#F5FFFC" fill-opacity="0.94"/>
    <rect x="532" y="548" width="102" height="12" rx="6" fill="#8DE4D6" fill-opacity="0.7"/>
    <rect x="532" y="570" width="86" height="12" rx="6" fill="#4CBBAF" fill-opacity="0.5"/>
    <circle cx="622" cy="543" r="22" fill="#14BFA9"/>
    <path d="M612 542L620 550L635 535" stroke="white" stroke-width="6" stroke-linecap="round" stroke-linejoin="round"/>
  </g>

  <g opacity="0.88">
    <path d="M116 414L171 375L192 397L156 449L116 414Z" fill="#1CC7B0"/>
    <path d="M153 369L196 338L209 354L176 393L153 369Z" fill="#EFFFFB" fill-opacity="0.9"/>
    <path d="M584 324L620 297L638 316L616 353L584 324Z" fill="#FFCF60"/>
  </g>

  <circle cx="176" cy="165" r="18" fill="#E8FFFB" fill-opacity="0.68"/>
  <circle cx="145" cy="184" r="8" fill="#1CC7B0"/>
  <circle cx="626" cy="292" r="10" fill="#E8FFFB" fill-opacity="0.7"/>
  <circle cx="650" cy="315" r="6" fill="#FFD560"/>
</svg>
